<svg xmlns="http://www.w3.org/2000/svg" viewBox="0 0 512 512"><style>.a{fill:#222123;}</style><path d="M512 256c0 128-93.9 234-216.6 253 -2.8 0.4-5.6 0.8-8.4 1.1 -9 1.1-18.2 1.7-27.4 1.8C258.4 512 257.2 512 256 512s-2.4 0-3.7 0c-9.3-0.1-18.4-0.7-27.4-1.8 -2.8-0.3-5.6-0.7-8.4-1.1C93.9 490 0 384 0 256 0 114.6 114.6 0 256 0S512 114.6 512 256z" fill="#F2F2F2"/><path d="M512 256c0 9.6-0.5 19.2-1.6 28.5 -0.1 1-0.2 2.1-0.4 3.1 -0.7 5.3-1.5 10.6-2.5 15.8 -0.2 1-0.4 2.1-0.6 3.1 -18.1 90.4-83.8 163.7-169.9 192.4 -13 2.5-17.6-5.5-17.6-12.3 0-8.4 0.3-36 0.3-70.2 0-23.9-8.2-39.5-17.4-47.4 44.3-4.9 90.4-19.1 108.7-71.5 0.4-1 0.7-2.1 1-3.1 1-3.2 1.9-6.5 2.7-10 0.2-1 0.5-2.1 0.7-3.1 2.4-11.3 3.7-24.1 3.7-38.6 0-27.9-9.9-50.8-26.4-68.7 2.7-6.4 11.4-32.5-2.5-67.8 0 0-21.5-6.9-70.3 26.2 -20.5-5.7-42.4-8.5-64.1-8.6 -21.8 0.1-43.7 2.9-64.1 8.6 -48.9-33.1-70.4-26.2-70.4-26.2 -13.9 35.3-5.1 61.3-2.5 67.8 -16.4 17.9-26.4 40.8-26.4 68.7 0 14.5 1.3 27.3 3.7 38.6 0.2 1.1 0.4 2.1 0.7 3.1 0.8 3.5 1.7 6.8 2.8 10 0.3 1.1 0.7 2.1 1 3.1 18.3 52.3 64.2 66.6 108.5 71.7 -7.3 6.4-14 17.7-16.3 34.2 -14.6 6.5-51.7 17.8-74.5-21.3 0 0-13.5-24.6-39.2-26.4 0 0-25-0.3-1.7 15.6 0 0 16.8 7.9 28.4 37.5 0 0 15 45.7 86.2 30.2 0.1 21.4 0.3 41.6 0.3 47.7 0 6.8-4.7 14.7-17.5 12.3C88.9 470.2 23.1 397 5 306.5v0c-0.2-1-0.4-2-0.6-3.1 -1-5.2-1.8-10.5-2.5-15.8 -0.1-1-0.3-2.1-0.4-3.1C0.5 275.2 0 265.6 0 256 0 114.6 114.6 0 256 0 397.4 0 512 114.6 512 256z" class="a"/><path d="M94.7 363.7c-1.8-0.9-3.9-0.5-4.4 0.8 -0.6 1.3 0.4 3 2.3 3.8 1.8 0.9 3.8 0.5 4.4-0.8C97.6 366.3 96.5 364.5 94.7 363.7z" class="a"/><path d="M106.6 373.8c-1.7-1.8-4-2.3-5.2-1.2 -1.2 1.1-0.9 3.5 0.7 5.3 1.6 1.8 4 2.3 5.2 1.2C108.6 378 108.3 375.6 106.6 373.8z" class="a"/><path d="M117.5 387.7c-1.6-2.3-4.1-3.2-5.7-2.2 -1.6 1.1-1.6 3.8 0 6.1 1.6 2.3 4.1 3.3 5.7 2.2C119 392.8 119 390 117.5 387.7z" class="a"/><path d="M129.8 401.6c-2.2-2.1-5.2-2.5-6.6-1 -1.4 1.5-0.8 4.5 1.5 6.5 2.2 2.1 5.2 2.5 6.6 1C132.7 406.6 132.1 403.6 129.8 401.6z" class="a"/><path d="M146.1 411.1c-2.9-0.9-5.8 0-6.4 2.1 -0.6 2 1.3 4.4 4.2 5.3 2.9 0.8 5.8-0.1 6.4-2.1C150.9 414.3 149 412 146.1 411.1z" class="a"/><path d="M165.7 414.2c-3.1 0.1-5.5 1.8-5.5 3.9 0 2.1 2.5 3.8 5.6 3.7 3 0 5.5-1.8 5.4-3.9C171.3 415.8 168.8 414.1 165.7 414.2z" class="a"/><path d="M190.8 414.6c-0.4-2.1-3.1-3.3-6.1-2.8 -3 0.5-5.1 2.7-4.8 4.8 0.4 2 3.1 3.3 6.1 2.8C189 418.8 191.1 416.7 190.8 414.6z" class="a"/></svg>