<svg xmlns="http://www.w3.org/2000/svg" viewBox="0 0 480 480"><style>  .a{fill:#726658;}.b{fill:#231F20;}</style><path d="M176 392h128v-24H176V392z" class="a"/><path d="M156.6 315.4c12.1 9.1 19.3 23.4 19.4 38.5V368h128v-14.1c0.1-15.1 7.2-29.2 19.2-38.4 59.4-46 70.3-131.4 24.3-190.8S216.1 54.5 156.7 100.4s-70.3 131.4-24.3 190.8c7 9 15.1 17.2 24.1 24.2L156.6 315.4zM343.2 194.9c-4.7-37.1-28.9-68.8-63.4-83.1C314.3 126.2 338.5 157.9 343.2 194.9zM252.3 104.7c-4.1-0.5-8.2-0.7-12.3-0.7C244.1 104 248.2 104.2 252.3 104.7z" fill="#B2D7F4"/><path d="M176 408c0 35.3 28.7 64 64 64 1.4 0 2.8 0 4.2-0.1 34.1-3 60.2-31.8 59.8-66V392H176V408z" class="a"/><path d="M343.2 202.9c-4 0-7.4-3-7.9-7-4.3-34.2-26.7-63.5-58.6-76.7-4.1-1.7-6-6.4-4.2-10.5 1.7-4 6.3-5.9 10.4-4.3 37.2 15.4 63.3 49.6 68.3 89.5 0.5 4.4-2.7 8.4-7.1 8.9-0.3 0-0.6 0-0.8 0.1L343.2 202.9z" class="b"/><path d="M252.3 112.7c-0.3 0-0.6 0-0.9 0-3.8-0.4-7.6-0.7-11.4-0.7-4.4 0-8-3.6-8-8s3.6-8 8-8c4.4 0 8.8 0.3 13.2 0.8 4.4 0.5 7.5 4.5 7 8.9-0.5 4-3.9 7-7.9 7.1V112.7z" class="b"/><path d="M240 48c-4.4 0-8-3.6-8-8V8c0-4.4 3.6-8 8-8s8 3.6 8 8v32C248 44.4 244.4 48 240 48z" class="b"/><path d="M152 71.6c-2.9 0-5.5-1.5-6.9-4l-16-27.7c-2.2-3.8-0.8-8.7 3-10.9 3.8-2.2 8.6-0.9 10.9 2.9l16 27.7c2.2 3.8 0.9 8.7-2.9 10.9C154.8 71.2 153.4 71.6 152 71.6z" class="b"/><path d="M87.6 136c-1.4 0-2.8-0.4-4-1.1l-27.7-16c-3.8-2.2-5.1-7.1-2.9-10.9 2.2-3.8 7.1-5.1 10.9-2.9l27.7 16c3.8 2.2 5.1 7.1 2.9 10.9C93.1 134.5 90.4 136 87.6 136L87.6 136z" class="b"/><path d="M64 224H32c-4.4 0-8-3.6-8-8s3.6-8 8-8h32c4.4 0 8 3.6 8 8S68.4 224 64 224z" class="b"/><path d="M59.9 328c-4.4 0-8-3.6-8-8 0-2.9 1.5-5.5 4-6.9l27.7-16c3.8-2.2 8.7-1 10.9 2.9 2.2 3.8 1 8.7-2.9 10.9 0 0-0.1 0-0.1 0.1l-27.7 16C62.7 327.6 61.3 328 59.9 328L59.9 328z" class="b"/><path d="M420.1 328c-1.4 0-2.8-0.4-4-1.1l-27.7-16c-3.8-2.2-5.2-7.1-3-10.9 2.2-3.8 7.1-5.2 10.9-3 0 0 0.1 0 0.1 0.1l27.7 16c3.8 2.2 5.1 7.1 2.9 10.9C425.6 326.5 423 328 420.1 328L420.1 328z" class="b"/><path d="M448 224h-32c-4.4 0-8-3.6-8-8s3.6-8 8-8h32c4.4 0 8 3.6 8 8S452.4 224 448 224z" class="b"/><path d="M392.4 136c-4.4 0-8-3.6-8-8 0-2.9 1.5-5.5 4-6.9l27.7-16c3.8-2.2 8.7-0.8 10.9 3 2.2 3.8 0.9 8.6-2.9 10.9l-27.7 16C395.2 135.6 393.8 136 392.4 136L392.4 136z" class="b"/><path d="M328 71.6c-4.4 0-8-3.6-8-8 0-1.4 0.4-2.8 1.1-4l16-27.7c2.2-3.8 7.1-5.1 10.9-2.9 3.8 2.2 5.1 7.1 2.9 10.9l-16 27.7C333.5 70.1 330.9 71.6 328 71.6L328 71.6z" class="b"/><path d="M382.9 190.2c-8.4-65.7-60.3-117.3-126.1-125.2-79-9.4-150.6 47.1-159.9 126.1-5.9 50.2 14.8 99.8 54.8 130.7 10.1 7.6 16.2 19.5 16.3 32.2V408c0 19.9 8.3 38.9 22.8 52.5 13.3 12.6 30.9 19.5 49.2 19.5 1.6 0 3.2 0 4.8-0.2 38.4-3.2 67.8-35.5 67.3-74v-51.9c0.1-12.6 6.1-24.4 16.1-32C368.5 290.8 389.4 240.7 382.9 190.2L382.9 190.2zM296 384H184v-8h112V384zM186.3 424h106.8c-0.9 2.7-1.9 5.4-3.2 8H189.4C188.2 429.4 187.2 426.7 186.3 424zM296 405.8c0 0.7-0.1 1.4-0.1 2.2H184v-8h112V405.8zM243.7 463.9c-15.5 1.1-30.7-4.4-42-15-0.3-0.3-0.5-0.6-0.8-0.9h77.7C269.3 457.3 256.9 463 243.7 463.9L243.7 463.9zM318.3 309.2c-14 10.6-22.3 27.1-22.3 44.7V360H184v-6.1c-0.1-17.6-8.4-34.2-22.5-44.8-55.9-43.3-66-123.7-22.7-179.6C163 98.3 200.3 80 239.8 80c5.1 0 10.2 0.3 15.2 0.9 70.2 8.3 120.4 71.9 112.1 142.1-4 34.1-21.6 65.2-48.8 86.2L318.3 309.2z" class="b"/></svg>