<svg xmlns="http://www.w3.org/2000/svg" width="722" height="350"><path fill="#6082bb" fill-rule="evenodd" d="M0 0h722v350H0z" color="#000" overflow="visible" style="isolation:auto;mix-blend-mode:normal"/><path fill="#fff" d="M270.3 192.6c7.9 0 13.8-1.5 17.6-4.4 3.7-3 6.2-8 7.6-15 1.2-6.5.7-11-1.4-13.5-2.3-2.6-7.1-3.8-14.4-3.8H267l-7 36.7h10.3zm-41.5 45.2a2 2 0 0 1-1.5-.7 2 2 0 0 1-.4-1.7l18.6-97.3a2 2 0 0 1 2-1.6h40c12.7 0 22 3.5 28 10.3 5.9 7 7.7 16.6 5.4 28.7a46.2 46.2 0 0 1-13.7 25 38.8 38.8 0 0 1-14.6 8.8c-5.3 1.8-12 2.6-20 2.6h-16.3l-4.7 24.3a2 2 0 0 1-2 1.6h-20.8zM370.4 212a2 2 0 0 1-1.5-.8 2 2 0 0 1-.4-1.6l8.1-43.1c.8-4.1.6-7-.5-8.3-.7-.7-2.8-2-8.8-2h-14.8l-10.2 54.1a2 2 0 0 1-2 1.6H320a2 2 0 0 1-1.5-.7 2 2 0 0 1-.4-1.6l18.4-97.4a2 2 0 0 1 2-1.6h20.4a2 2 0 0 1 1.5.8c.3.4.5 1 .4 1.6l-4.5 23.5h15.9c12 0 20.2 2.2 25 6.7 4.9 4.6 6.4 12 4.5 21.8l-8.5 45.3a2 2 0 0 1-2 1.6h-20.7zM439.2 192.6c8.3 0 14.4-1.5 18.3-4.4 3.9-3 6.5-8 8-15 1.2-6.5.7-11-1.5-13.5-2.4-2.6-7.4-3.8-15-3.8h-13.2l-7.2 36.7h10.6zm-43 45.2a2 2 0 0 1-1.6-.7 2 2 0 0 1-.4-1.7l19.3-97.3a2 2 0 0 1 2-1.6h41.7c13.1 0 22.9 3.5 29 10.3 6.1 7 8 16.6 5.6 28.7a45.1 45.1 0 0 1-29.4 33.8 70.2 70.2 0 0 1-20.8 2.6h-16.9l-4.8 24.3a2 2 0 0 1-2 1.6h-21.7z"/></svg>