<svg xmlns="http://www.w3.org/2000/svg" viewBox="0 0 512 512"><style>.a{fill:#E5E5E5;}</style><circle cx="256" cy="256" r="248" fill="#47B0D3"/><path d="M290.2 495.4c-137 0-248-111-248-248 0-110 71.6-203.2 170.8-235.7C96.5 32.1 8 133.7 8 256c0 137 111 248 248 248 27 0 52.9-4.3 77.2-12.3C319.3 494.1 304.9 495.4 290.2 495.4z" fill="#3298BA"/><polygon points="188.6 401.4 168.9 283.2 375.7 115.8 " fill="#B2B2B2"/><polygon points="213.2 298 188.6 401.4 375.7 115.8 " fill="#CCC"/><path d="M213.2 298l162.5-182.2 -14.3 243.8c-0.2 3.5-3.8 5.6-7 4.2L213.2 298z" class="a"/><path d="M375.7 115.8L100.1 244.1c-3.8 1.8-3.8 7.3 0.1 9l68.8 30.1L375.7 115.8z" class="a"/><path d="M490.6 153.4c-13.7-31.3-33.2-59.2-58.1-82.8 -3.2-3.1-8.3-2.9-11.3 0.3 -3.1 3.2-2.9 8.3 0.3 11.3 48 45.8 74.5 107.5 74.5 173.8 0 132.3-107.6 240-240 240S16 388.3 16 256 123.7 16 256 16c48.3 0 94.9 14.3 134.7 41.4 3.7 2.5 8.6 1.5 11.1-2.1 2.5-3.7 1.5-8.6-2.1-11.1C357.3 15.3 307.6 0 256 0 187.6 0 123.3 26.6 75 75 26.6 123.3 0 187.6 0 256s26.6 132.7 75 181C123.3 485.4 187.6 512 256 512s132.7-26.6 181-75C485.4 388.7 512 324.4 512 256 512 220.3 504.8 185.8 490.6 153.4z"/><path d="M383.7 115.6c-0.2-5.7-6.3-9.4-11.4-7.1l-154.2 71.8c-4 1.9-5.8 6.6-3.9 10.7 1.9 4 6.6 5.8 10.7 3.9l95.1-44.3 -46.2 37.4 -106.1 85.9 -58-25.4 81.3-37.9c4-1.9 5.8-6.6 3.9-10.7s-6.6-5.8-10.6-3.9l-87.5 40.8c-4.7 2.2-7.6 6.9-7.5 12 0.1 5 3.1 9.5 7.7 11.6l64.8 28.4 19 113.9c1.2 7 10.7 9 14.6 3.1l53.8-82.2 101.8 47.5c8.2 3.8 17.9-2 18.4-11l14.3-243.8C383.7 116.1 383.7 115.8 383.7 115.6zM243.4 303.2l-17-7.9 83.5-93.6L297.8 220.1 243.4 303.2zM218.8 309.4l15.7 7.3 -27.4 41.9L218.8 309.4zM304 184.2l-96.7 108.4c-0.9 1-1.5 2.2-1.8 3.5l-15.4 64.8 -12.4-74.4L304 184.2zM353.6 354.6l-95.6-44.6 107.9-164.7L353.6 354.6z"/></svg>